<?xml version="1.0" encoding="utf-8" ?>
<svg xmlns="http://www.w3.org/2000/svg" xmlns:xlink="http://www.w3.org/1999/xlink" width="512" height="512">
	<path fill="white" d="M265.688 75.6858L230.617 76.9276C187.648 81.0621 150.119 94.646 114.688 119.501C109.84 122.902 105.408 127.352 100.192 130.125C78.6762 141.562 55.3053 115.387 74.3237 95.625C76.9615 92.884 80.098 90.5888 83.1259 88.3001L96.1695 78.9098C135.604 52.2156 181.857 36.8993 229.182 32.9154L245.406 31.8012L245.424 31.7894C255.524 31.645 265.901 31.3993 275.972 32.0453L307.702 36.0731C345.482 42.5666 380.895 55.0216 412.866 76.6357C423.13 83.5743 443.702 95.3468 443.906 109.5C444.123 124.61 429.322 136.002 414.75 131.503C411.452 130.485 408.704 128.322 406.025 126.23L386.352 111.87C352.134 89.0602 306.984 75.7908 265.688 75.6858Z"/>
	<path fill="white" d="M265.202 156.223L243.101 156.932C181.424 163.8 133.721 207.045 120.997 268.204C118.293 281.203 118.645 292.433 118.647 305.614L118.676 465.97C118.676 466.778 118.931 469.931 118.507 470.461L73.9855 470.451C71.0382 470.446 67.9999 470.581 65.0692 470.308C43.3194 468.275 26.9622 450.756 22.597 429.951C21.4958 424.703 21.949 418.938 21.9645 413.602L21.9975 315.5C22.1939 293.004 41.4132 271.205 63.88 268.623C68.6009 268.081 73.4836 268.325 78.2295 268.401C78.939 267.202 78.8391 263.906 79.0425 262.403C90.0968 180.671 165.238 116.557 246.997 112.31C256.102 112.117 265.572 111.797 274.625 112.735C336.758 119.173 392.415 159.052 418.798 215.626C426.173 231.44 432.339 250.529 433.746 267.839C436.394 268.604 440.003 268.217 442.767 268.274C469.628 268.827 490.226 290.432 490.255 317.109L490.238 402.256C490.246 410.595 490.832 419.38 489.835 427.656C486.828 452.621 465.106 470.428 440.426 470.466L392.747 470.472L392.723 283.125C389.125 215.709 332.518 160.124 265.202 156.223Z"/>
	<path fill="white" d="M260.744 429.146C255.786 429.234 250.804 429.341 245.858 428.923C193.216 424.473 154.532 382.64 148.318 331.251L148.133 329.471C144.041 267.545 190.632 219.344 250.947 215.346C330.303 210.747 388.594 292.849 353.838 366.104C336.612 402.412 300.703 426.762 260.744 429.146ZM271.801 260.248L272.144 382.42C274.212 381.536 276.608 381.225 278.769 380.365C287.697 376.815 296.139 371.527 303.144 364.951C337.518 329.541 321.102 272.171 271.801 260.248ZM231.769 261.62C214.604 270.339 199.697 283.479 193.614 302.147C186.518 323.923 192.374 348 207.662 364.742C214.867 372.064 222.361 377.424 231.814 381.254L231.769 261.62Z"/>
</svg>
